<?xml version="1.0" encoding="UTF-8"?><svg xmlns="http://www.w3.org/2000/svg" xmlns:xlink="http://www.w3.org/1999/xlink" fill-opacity="1" color-rendering="auto" color-interpolation="auto" text-rendering="auto" stroke="black" stroke-linecap="square" width="776" stroke-miterlimit="10" shape-rendering="auto" stroke-opacity="1" fill="black" stroke-dasharray="none" font-weight="normal" stroke-width="1" height="650" font-family="'Dialog'" font-style="normal" stroke-linejoin="miter" font-size="12px" stroke-dashoffset="0" image-rendering="auto">
  <!--Generated by ySVG 2.5-->
  <defs id="genericDefs"/>
  <g>
    <defs id="defs1">
      <clipPath clipPathUnits="userSpaceOnUse" id="clipPath1">
        <path d="M0 0 L776 0 L776 650 L0 650 L0 0 Z"/>
      </clipPath>
      <clipPath clipPathUnits="userSpaceOnUse" id="clipPath2">
        <path d="M24 9 L800 9 L800 659 L24 659 L24 9 Z"/>
      </clipPath>
    </defs>
    <g fill="white" text-rendering="geometricPrecision" shape-rendering="geometricPrecision" transform="translate(-24,-9)" stroke="white">
      <rect x="24" width="776" height="650" y="9" clip-path="url(#clipPath2)" stroke="none"/>
    </g>
    <g fill="rgb(255,204,0)" text-rendering="geometricPrecision" shape-rendering="geometricPrecision" transform="matrix(1,0,0,1,-24,-9)" stroke="rgb(255,204,0)">
      <rect x="217.8242" width="86.0679" height="86.0679" y="251" clip-path="url(#clipPath2)" stroke="none"/>
    </g>
    <g text-rendering="geometricPrecision" stroke-miterlimit="1.45" shape-rendering="geometricPrecision" font-family="sans-serif" transform="matrix(1,0,0,1,-24,-9)" stroke-linecap="butt">
      <text x="242.3835" xml:space="preserve" y="298.5691" clip-path="url(#clipPath2)" stroke="none">Profile</text>
      <rect fill="none" x="217.8242" width="86.0679" height="86.0679" y="251" clip-path="url(#clipPath2)"/>
    </g>
    <g fill="rgb(255,204,0)" text-rendering="geometricPrecision" shape-rendering="geometricPrecision" transform="matrix(1,0,0,1,-24,-9)" stroke="rgb(255,204,0)">
      <circle r="15" clip-path="url(#clipPath2)" cx="78.7064" cy="145.2196" stroke="none"/>
    </g>
    <g text-rendering="geometricPrecision" stroke-miterlimit="1.45" shape-rendering="geometricPrecision" font-family="sans-serif" transform="matrix(1,0,0,1,-24,-9)" stroke-linecap="butt">
      <text x="73.1957" xml:space="preserve" y="149.7548" clip-path="url(#clipPath2)" stroke="none">id</text>
      <line y2="152.286" fill="none" x1="73.1957" clip-path="url(#clipPath2)" x2="84.2172" y1="152.286"/>
      <circle fill="none" r="15" clip-path="url(#clipPath2)" cx="78.7064" cy="145.2196"/>
    </g>
    <g fill="rgb(255,204,0)" text-rendering="geometricPrecision" shape-rendering="geometricPrecision" transform="matrix(1,0,0,1,-24,-9)" stroke="rgb(255,204,0)">
      <circle r="15" clip-path="url(#clipPath2)" cx="78.7064" cy="185.4797" stroke="none"/>
    </g>
    <g text-rendering="geometricPrecision" stroke-miterlimit="1.45" shape-rendering="geometricPrecision" font-family="sans-serif" transform="matrix(1,0,0,1,-24,-9)" stroke-linecap="butt">
      <text x="70.1225" xml:space="preserve" y="190.0149" clip-path="url(#clipPath2)" stroke="none">pic</text>
      <circle fill="none" r="15" clip-path="url(#clipPath2)" cx="78.7064" cy="185.4797"/>
    </g>
    <g fill="rgb(255,204,0)" text-rendering="geometricPrecision" shape-rendering="geometricPrecision" transform="matrix(1,0,0,1,-24,-9)" stroke="rgb(255,204,0)">
      <ellipse rx="38.7212" ry="15" clip-path="url(#clipPath2)" cx="78.7064" cy="225.7399" stroke="none"/>
    </g>
    <g text-rendering="geometricPrecision" stroke-miterlimit="1.45" shape-rendering="geometricPrecision" font-family="sans-serif" transform="matrix(1,0,0,1,-24,-9)" stroke-linecap="butt">
      <text x="62.725" xml:space="preserve" y="230.275" clip-path="url(#clipPath2)" stroke="none">name</text>
      <ellipse rx="38.7212" fill="none" ry="15" clip-path="url(#clipPath2)" cx="78.7064" cy="225.7399"/>
    </g>
    <g fill="rgb(255,204,0)" text-rendering="geometricPrecision" shape-rendering="geometricPrecision" transform="matrix(1,0,0,1,-24,-9)" stroke="rgb(255,204,0)">
      <ellipse rx="38.7212" ry="15" clip-path="url(#clipPath2)" cx="78.7064" cy="266" stroke="none"/>
    </g>
    <g text-rendering="geometricPrecision" stroke-miterlimit="1.45" shape-rendering="geometricPrecision" font-family="sans-serif" transform="matrix(1,0,0,1,-24,-9)" stroke-linecap="butt">
      <text x="50.1449" xml:space="preserve" y="270.5352" clip-path="url(#clipPath2)" stroke="none">username</text>
      <ellipse rx="38.7212" fill="none" ry="15" clip-path="url(#clipPath2)" cx="78.7064" cy="266"/>
    </g>
    <g fill="rgb(255,204,0)" text-rendering="geometricPrecision" shape-rendering="geometricPrecision" transform="matrix(1,0,0,1,-24,-9)" stroke="rgb(255,204,0)">
      <ellipse rx="34.3515" ry="15" clip-path="url(#clipPath2)" cx="78.7064" cy="306.2601" stroke="none"/>
    </g>
    <g text-rendering="geometricPrecision" stroke-miterlimit="1.45" shape-rendering="geometricPrecision" font-family="sans-serif" transform="matrix(1,0,0,1,-24,-9)" stroke-linecap="butt">
      <text x="62.9799" xml:space="preserve" y="310.7953" clip-path="url(#clipPath2)" stroke="none">email</text>
      <ellipse rx="34.3515" fill="none" ry="15" clip-path="url(#clipPath2)" cx="78.7064" cy="306.2601"/>
    </g>
    <g fill="rgb(255,204,0)" text-rendering="geometricPrecision" shape-rendering="geometricPrecision" transform="matrix(1,0,0,1,-24,-9)" stroke="rgb(255,204,0)">
      <ellipse rx="34.3515" ry="15" clip-path="url(#clipPath2)" cx="78.7064" cy="346.5203" stroke="none"/>
    </g>
    <g text-rendering="geometricPrecision" stroke-miterlimit="1.45" shape-rendering="geometricPrecision" font-family="sans-serif" transform="matrix(1,0,0,1,-24,-9)" stroke-linecap="butt">
      <text x="61.4945" xml:space="preserve" y="351.0554" clip-path="url(#clipPath2)" stroke="none">globalRating</text>
      <ellipse rx="34.3515" fill="none" ry="15" clip-path="url(#clipPath2)" cx="78.7064" cy="346.5203"/>
    </g>
    <g fill="rgb(255,204,0)" text-rendering="geometricPrecision" shape-rendering="geometricPrecision" transform="matrix(1,0,0,1,-24,-9)" stroke="rgb(255,204,0)">
      <ellipse rx="34.3515" ry="15" clip-path="url(#clipPath2)" cx="565.0453" cy="61.5734" stroke="none"/>
    </g>
    <g text-rendering="geometricPrecision" stroke-miterlimit="1.45" shape-rendering="geometricPrecision" font-family="sans-serif" transform="matrix(1,0,0,1,-24,-9)" stroke-linecap="butt">
      <text x="547.8334" xml:space="preserve" y="66.1085" clip-path="url(#clipPath2)" stroke="none">globalRating</text>
      <ellipse rx="34.3515" fill="none" ry="15" clip-path="url(#clipPath2)" cx="565.0453" cy="61.5734"/>
    </g>
    <g fill="rgb(255,204,0)" text-rendering="geometricPrecision" shape-rendering="geometricPrecision" transform="matrix(1,0,0,1,-24,-9)" stroke="rgb(255,204,0)">
      <circle r="15" clip-path="url(#clipPath2)" cx="78.7064" cy="394.9292" stroke="none"/>
    </g>
    <g text-rendering="geometricPrecision" stroke-miterlimit="1.45" shape-rendering="geometricPrecision" font-family="sans-serif" transform="matrix(1,0,0,1,-24,-9)" stroke-linecap="butt">
      <text x="70.6322" xml:space="preserve" y="399.4644" clip-path="url(#clipPath2)" stroke="none">CV</text>
      <circle fill="none" r="15" clip-path="url(#clipPath2)" cx="78.7064" cy="394.9292"/>
    </g>
    <g fill="rgb(255,204,0)" text-rendering="geometricPrecision" shape-rendering="geometricPrecision" transform="matrix(1,0,0,1,-24,-9)" stroke="rgb(255,204,0)">
      <rect x="577.2351" width="86.0679" height="86.0679" y="251" clip-path="url(#clipPath2)" stroke="none"/>
    </g>
    <g text-rendering="geometricPrecision" stroke-miterlimit="1.45" shape-rendering="geometricPrecision" font-family="sans-serif" transform="matrix(1,0,0,1,-24,-9)" stroke-linecap="butt">
      <text x="599.8521" xml:space="preserve" y="298.5691" clip-path="url(#clipPath2)" stroke="none">Course</text>
      <rect fill="none" x="577.2351" width="86.0679" height="86.0679" y="251" clip-path="url(#clipPath2)"/>
    </g>
    <g fill="rgb(255,204,0)" text-rendering="geometricPrecision" shape-rendering="geometricPrecision" transform="matrix(1,0,0,1,-24,-9)" stroke="rgb(255,204,0)">
      <circle r="15" clip-path="url(#clipPath2)" cx="753.5651" cy="266" stroke="none"/>
    </g>
    <g text-rendering="geometricPrecision" stroke-miterlimit="1.45" shape-rendering="geometricPrecision" font-family="sans-serif" transform="matrix(1,0,0,1,-24,-9)" stroke-linecap="butt">
      <text x="748.0543" xml:space="preserve" y="270.5352" clip-path="url(#clipPath2)" stroke="none">id</text>
      <line y2="273.0664" fill="none" x1="748.0544" clip-path="url(#clipPath2)" x2="759.0758" y1="273.0664"/>
      <circle fill="none" r="15" clip-path="url(#clipPath2)" cx="753.5651" cy="266"/>
    </g>
    <g fill="rgb(255,204,0)" text-rendering="geometricPrecision" shape-rendering="geometricPrecision" transform="matrix(1,0,0,1,-24,-9)" stroke="rgb(255,204,0)">
      <ellipse rx="31.3031" ry="15" clip-path="url(#clipPath2)" cx="753.5651" cy="311.6268" stroke="none"/>
    </g>
    <g text-rendering="geometricPrecision" stroke-miterlimit="1.45" shape-rendering="geometricPrecision" font-family="sans-serif" transform="matrix(1,0,0,1,-24,-9)" stroke-linecap="butt">
      <text x="737.5836" xml:space="preserve" y="316.162" clip-path="url(#clipPath2)" stroke="none">name</text>
      <ellipse rx="31.3031" fill="none" ry="15" clip-path="url(#clipPath2)" cx="753.5651" cy="311.6268"/>
    </g>
    <g fill="rgb(255,204,0)" text-rendering="geometricPrecision" shape-rendering="geometricPrecision" transform="matrix(1,0,0,1,-24,-9)" stroke="rgb(255,204,0)">
      <path d="M380.4333 145.2196 L440.5636 106.5734 L500.6938 145.2196 L440.5636 183.8659 Z" fill-rule="evenodd" clip-path="url(#clipPath2)" stroke="none"/>
    </g>
    <g text-rendering="geometricPrecision" stroke-miterlimit="1.45" shape-rendering="geometricPrecision" font-family="sans-serif" transform="matrix(1,0,0,1,-24,-9)" stroke-linecap="butt">
      <text x="418.4649" xml:space="preserve" y="149.7548" clip-path="url(#clipPath2)" stroke="none">teaches</text>
      <path fill="none" d="M380.4333 145.2196 L440.5636 106.5734 L500.6938 145.2196 L440.5636 183.8659 Z" clip-path="url(#clipPath2)" fill-rule="evenodd"/>
    </g>
    <g fill="rgb(255,204,0)" text-rendering="geometricPrecision" shape-rendering="geometricPrecision" transform="matrix(1,0,0,1,-24,-9)" stroke="rgb(255,204,0)">
      <path d="M380.4333 450.6868 L440.5636 412.0405 L500.6938 450.6868 L440.5636 489.333 Z" fill-rule="evenodd" clip-path="url(#clipPath2)" stroke="none"/>
    </g>
    <g text-rendering="geometricPrecision" stroke-miterlimit="1.45" shape-rendering="geometricPrecision" font-family="sans-serif" transform="matrix(1,0,0,1,-24,-9)" stroke-linecap="butt">
      <text x="422.9356" xml:space="preserve" y="455.2219" clip-path="url(#clipPath2)" stroke="none">learns</text>
      <path fill="none" d="M380.4333 450.6868 L440.5636 412.0405 L500.6938 450.6868 L440.5636 489.333 Z" clip-path="url(#clipPath2)" fill-rule="evenodd"/>
    </g>
    <g fill="rgb(255,204,0)" text-rendering="geometricPrecision" shape-rendering="geometricPrecision" transform="matrix(1,0,0,1,-24,-9)" stroke="rgb(255,204,0)">
      <ellipse rx="48.5617" ry="21.733" clip-path="url(#clipPath2)" cx="440.5636" cy="45.8639" stroke="none"/>
    </g>
    <g text-rendering="geometricPrecision" stroke-miterlimit="1.45" shape-rendering="geometricPrecision" font-family="sans-serif" transform="matrix(1,0,0,1,-24,-9)" stroke-linecap="butt">
      <text x="401.0069" xml:space="preserve" y="50.3991" clip-path="url(#clipPath2)" stroke="none">total of hours</text>
      <ellipse rx="48.5617" fill="none" ry="21.733" clip-path="url(#clipPath2)" cx="440.5636" cy="45.8639"/>
    </g>
    <g fill="rgb(255,204,0)" text-rendering="geometricPrecision" shape-rendering="geometricPrecision" transform="matrix(1,0,0,1,-24,-9)" stroke="rgb(255,204,0)">
      <path d="M175.9083 509.333 L236.0386 470.6868 L296.1689 509.333 L236.0386 547.9793 Z" fill-rule="evenodd" clip-path="url(#clipPath2)" stroke="none"/>
    </g>
    <g text-rendering="geometricPrecision" stroke-miterlimit="1.45" shape-rendering="geometricPrecision" font-family="sans-serif" transform="matrix(1,0,0,1,-24,-9)" stroke-linecap="butt">
      <text x="212.3081" xml:space="preserve" y="513.8682" clip-path="url(#clipPath2)" stroke="none">meeting</text>
      <path fill="none" d="M175.9083 509.333 L236.0386 470.6868 L296.1689 509.333 L236.0386 547.9793 Z" clip-path="url(#clipPath2)" fill-rule="evenodd"/>
    </g>
    <g fill="rgb(255,204,0)" text-rendering="geometricPrecision" shape-rendering="geometricPrecision" transform="matrix(1,0,0,1,-24,-9)" stroke="rgb(255,204,0)">
      <ellipse rx="23.2868" ry="15" clip-path="url(#clipPath2)" cx="197.6392" cy="592.9793" stroke="none"/>
    </g>
    <g text-rendering="geometricPrecision" stroke-miterlimit="1.45" shape-rendering="geometricPrecision" font-family="sans-serif" transform="matrix(1,0,0,1,-24,-9)" stroke-linecap="butt">
      <text x="184.9624" xml:space="preserve" y="597.5145" clip-path="url(#clipPath2)" stroke="none">date</text>
      <ellipse rx="23.2868" fill="none" ry="15" clip-path="url(#clipPath2)" cx="197.6392" cy="592.9793"/>
    </g>
    <g fill="rgb(255,204,0)" text-rendering="geometricPrecision" shape-rendering="geometricPrecision" transform="matrix(1,0,0,1,-24,-9)" stroke="rgb(255,204,0)">
      <ellipse rx="25.3585" ry="15" clip-path="url(#clipPath2)" cx="270.8104" cy="592.9793" stroke="none"/>
    </g>
    <g text-rendering="geometricPrecision" stroke-miterlimit="1.45" shape-rendering="geometricPrecision" font-family="sans-serif" transform="matrix(1,0,0,1,-24,-9)" stroke-linecap="butt">
      <text x="255.5701" xml:space="preserve" y="597.5145" clip-path="url(#clipPath2)" stroke="none">place</text>
      <ellipse rx="25.3585" fill="none" ry="15" clip-path="url(#clipPath2)" cx="270.8104" cy="592.9793"/>
    </g>
    <g fill="rgb(255,204,0)" text-rendering="geometricPrecision" shape-rendering="geometricPrecision" transform="matrix(1,0,0,1,-24,-9)" stroke="rgb(255,204,0)">
      <circle r="15" clip-path="url(#clipPath2)" cx="236.0386" cy="628.2841" stroke="none"/>
    </g>
    <g text-rendering="geometricPrecision" stroke-miterlimit="1.45" shape-rendering="geometricPrecision" font-family="sans-serif" transform="matrix(1,0,0,1,-24,-9)" stroke-linecap="butt">
      <text x="230.5278" xml:space="preserve" y="632.8193" clip-path="url(#clipPath2)" stroke="none">id</text>
      <line y2="635.3505" fill="none" x1="230.5278" clip-path="url(#clipPath2)" x2="241.5493" y1="635.3505"/>
      <circle fill="none" r="15" clip-path="url(#clipPath2)" cx="236.0386" cy="628.2841"/>
      <path fill="none" d="M217.7868 294.0209 L213.0465 292.3627 L207.6574 287.6396 L195.2286 270.7817 L165.0531 219.6268 L148.0404 192.3054 L130.2337 168.4719 L121.1473 158.953 L112 151.614 L102.8378 146.8909 L93.7421 145.2262" clip-path="url(#clipPath2)"/>
      <path fill="none" d="M217.7983 294.0292 L211.2153 292.8148 L204.3033 289.3695 L197.1202 284.016 L189.6982 277.0724 L174.2662 259.6867 L158.2645 239.7568 L141.9504 219.827 L125.5811 202.4413 L117.4562 195.4977 L109.4141 190.1442 L101.4867 186.6989 L93.7368 185.4845" clip-path="url(#clipPath2)"/>
      <path fill="none" d="M217.7867 294.0309 L208.2379 293.267 L199.5618 291.0994 L191.6955 287.7314 L184.5385 283.363 L171.9509 272.4253 L160.9955 259.8869 L150.869 247.3485 L140.7677 236.4108 L129.8884 228.6744 L123.9059 226.5068 L117.4276 225.7399" clip-path="url(#clipPath2)"/>
      <path fill="none" d="M217.7897 294.0316 L200.1763 292.8293 L185.5919 289.6536 L173.2677 285.1638 L162.4001 280.017 L141.8212 270.3803 L130.5029 267.2046 L117.4276 266" clip-path="url(#clipPath2)"/>
      <path fill="none" d="M217.7936 294.0358 L186.4893 295.9443 L159.7471 300.147 L135.8519 304.3498 L113.0579 306.2601" clip-path="url(#clipPath2)"/>
      <path fill="none" d="M217.7822 294.0428 L207.0807 296.2892 L195.1799 302.2349 L168.8766 320.2771 L154.9594 329.9133 L140.8555 338.3193 L126.8075 344.265 L113.0579 346.5203" clip-path="url(#clipPath2)"/>
      <path fill="none" d="M217.7911 294.0428 L213.5883 295.167 L208.4511 298.3693 L195.8431 309.7988 L163.8826 344.4816 L146.0104 363.0053 L127.8635 379.1643 L118.9184 385.6181 L110.1822 390.5938 L101.7473 393.7961 L93.7378 394.9248" clip-path="url(#clipPath2)"/>
      <path fill="none" d="M663.303 294.0339 L674.2281 292.8293 L684.2338 289.6536 L702.4588 280.017 L719.9214 270.3803 L728.9742 267.2046 L738.5651 266" clip-path="url(#clipPath2)"/>
      <path fill="none" d="M663.303 294.0339 L673.8363 294.7899 L682.3925 296.7828 L695.7198 302.8304 L707.5786 308.8779 L714.2988 310.8708 L722.262 311.6268" clip-path="url(#clipPath2)"/>
      <path fill="none" d="M260.8623 250.9671 L263.0227 234.1669 L269.3475 216.4162 L279.5791 198.7225 L293.464 182.0603 L310.7486 167.4044 L320.5867 161.1333 L331.1796 155.7292 L342.4958 151.314 L354.5034 148.0095 L367.1709 145.9374 L380.4406 145.221" clip-path="url(#clipPath2)"/>
      <path fill="none" d="M620.2654 250.9576 L618.4012 229.3079 L612.7972 209.2764 L603.4561 191.2852 L597.3837 183.1734 L590.3768 175.7139 L582.4351 168.9543 L573.5585 162.9421 L563.747 157.7246 L553.0004 153.3493 L541.3185 149.8638 L528.7014 147.3153 L500.6879 145.2217" clip-path="url(#clipPath2)"/>
      <path fill="none" d="M440.5939 106.5862 L538.5905 71.1418" clip-path="url(#clipPath2)"/>
      <path fill="none" d="M260.8604 337.1137 L262.0529 360.5663 L266.0227 382.1754 L273.345 401.512 L278.4439 410.2082 L284.5977 418.1925 L291.8784 425.417 L300.3585 431.8337 L310.1099 437.3947 L321.205 442.052 L333.716 445.7578 L347.7151 448.4642 L363.2746 450.1231 L380.433 450.6857" clip-path="url(#clipPath2)"/>
      <path fill="none" d="M500.6969 450.6856 L519.2655 450.0776 L535.8737 448.2943 L550.595 445.4028 L563.5393 441.4694 L574.8166 436.5601 L584.5366 430.7412 L592.8094 424.0787 L599.7448 416.6388 L605.4526 408.4875 L610.0429 399.6912 L616.3102 380.4274 L619.4258 359.3766 L620.2674 337.1114" clip-path="url(#clipPath2)"/>
      <path fill="none" d="M440.5636 106.5591 L440.5636 67.5969" clip-path="url(#clipPath2)"/>
      <path fill="none" d="M168.0665 507.7466 L167.5798 507.6485 L160.4025 504.9167 L154.3536 501.2099 L149.3772 496.6003 L145.417 491.1599 L142.4172 484.9611 L139.0741 470.5767 L138.8993 454.0245 L141.4444 435.882 L146.261 416.7267 L152.9004 397.136 L160.9144 377.6875 L169.8542 358.9585 L188.718 325.9691 L205.904 302.7877 L212.7465 296.3186 L217.7845 294.0518" clip-path="url(#clipPath2)"/>
      <path d="M175.909 509.3264 L165.1327 502.0551 L167.0862 507.5491 L163.1579 511.8581 Z" clip-path="url(#clipPath2)" stroke="none"/>
      <path fill="none" d="M296.1748 509.3357 L301.1577 509.6776 L306.0051 508.7173 L315.1227 503.2216 L323.3813 493.525 L330.6738 480.3061 L336.8934 464.2437 L341.933 446.0168 L345.6856 426.3041 L348.0443 405.7844 L348.902 385.1365 L348.1518 365.0394 L345.6866 346.1717 L341.3995 329.2122 L335.1835 314.84 L326.9316 303.7336 L322.0087 299.6173 L316.5367 296.572 L310.5023 294.6826 L303.9178 294.0365" clip-path="url(#clipPath2)"/>
      <path fill="none" d="M204.2426 578.595 L222.3297 539.1955" clip-path="url(#clipPath2)"/>
      <path fill="none" d="M264.7552 578.4132 L248.7283 539.8592" clip-path="url(#clipPath2)"/>
      <path fill="none" d="M236.0386 613.2841 L236.0386 547.9847" clip-path="url(#clipPath2)"/>
    </g>
  </g>
</svg>
